<svg id="Layer_5" enable-background="new 0 0 64 64" height="512" viewBox="0 0 64 64" width="512" xmlns="http://www.w3.org/2000/svg"><g fill="#ff826e"><path d="m8 24c2.21 0 4 1.79 4 4v12 10h-2c-2.21 0-4-1.79-4-4v-16.17-.01c-.31.12-.65.18-1 .18-.83 0-1.58-.34-2.12-.88s-.88-1.29-.88-2.12.34-1.58.88-2.12 1.29-.88 2.12-.88z"/><path d="m61.12 29.12c-.54.54-1.29.88-2.12.88-.35 0-.69-.06-1-.18v.01 16.17c0 2.21-1.79 4-4 4h-2v-10-12c0-2.21 1.79-4 4-4h3c.83 0 1.58.34 2.12.88s.88 1.29.88 2.12-.34 1.58-.88 2.12z"/><path d="m51.85 13.63c-4.77-1.79-11.65-3.63-19.85-3.63s-15.08 1.84-19.85 3.63c-4.31 1.62-7.15 5.76-7.15 10.37h3c2.21 0 4 1.79 4 4v12h40v-12c0-2.21 1.79-4 4-4h3c0-4.61-2.84-8.75-7.15-10.37z"/><path d="m12 50v-10h40v10h-6-28z"/></g><path d="m52 40h-40c0-3.31 2.69-6 6-6h14 10 4c3.31 0 6 2.69 6 6z" fill="#fc6e51"/><path d="m36 20v2h-4c-2.21 0-4 1.79-4 4v2h-6c-2.21 0-4-1.79-4-4v-4c0-2.21 1.79-4 4-4h10c2.21 0 4 1.79 4 4z" fill="#fcd770"/><path d="m42 22c2.21 0 4 1.79 4 4v4c0 2.21-1.79 4-4 4h-10c-2.21 0-4-1.79-4-4v-2-2c0-2.21 1.79-4 4-4h4z" fill="#fcd770"/><path d="m18 50-1 4h-6l-1-4h2z" fill="#838f9b"/><path d="m54 50-1 4h-6l-1-4h6z" fill="#838f9b"/><path d="m59.966 23.132c-.338-4.658-3.371-8.785-7.765-10.437-4.481-1.686-11.623-3.695-20.201-3.695s-15.72 2.009-20.202 3.694c-4.393 1.652-7.426 5.779-7.765 10.437-1.737.436-3.033 1.998-3.033 3.869 0 2.206 1.794 4 4 4v15c0 2.483 1.824 4.532 4.199 4.919l1.02 4.081h7.562l1-4h26.438l1 4h7.562l1.02-4.081c2.375-.387 4.199-2.436 4.199-4.919v-15c2.206 0 4-1.794 4-4 0-1.871-1.296-3.433-3.034-3.868zm-47.464-8.567c4.327-1.626 11.221-3.565 19.498-3.565s15.171 1.939 19.498 3.565c3.576 1.345 6.067 4.66 6.446 8.435h-1.944c-2.757 0-5 2.243-5 5v7.111c-1.272-1.301-3.042-2.111-5-2.111h-.026c.635-.838 1.026-1.87 1.026-3v-4c0-2.757-2.243-5-5-5h-5v-1c0-2.757-2.243-5-5-5h-10c-2.757 0-5 2.243-5 5v4c0 2.757 2.243 5 5 5h5v1c0 1.13.391 2.162 1.026 3h-10.026c-1.958 0-3.728.81-5 2.111v-7.111c0-2.757-2.243-5-5-5h-1.944c.379-3.774 2.871-7.089 6.446-8.435zm.498 34.435v-8h38v8zm14-23v1h-5c-1.654 0-3-1.346-3-3v-4c0-1.654 1.346-3 3-3h10c1.654 0 3 1.346 3 3v1h-3c-2.757 0-5 2.243-5 5zm2 4v-4c0-1.654 1.346-3 3-3h10c1.654 0 3 1.346 3 3v4c0 1.654-1.346 3-3 3h-10c-1.654 0-3-1.346-3-3zm3 5h10 4c2.414 0 4.434 1.721 4.899 4h-37.798c.465-2.279 2.484-4 4.899-4zm-25 11v-15.556c1.19-.694 2-1.97 2-3.444h-2c0 1.103-.897 2-2 2s-2-.897-2-2 .897-2 2-2h3c1.654 0 3 1.346 3 3v21h-1c-1.654 0-3-1.346-3-3zm9.219 7h-4.438l-.5-2h5.438zm31.562 0-.5-2h5.438l-.5 2zm11.219-24c-1.103 0-2-.897-2-2h-2c0 1.474.81 2.75 2 3.444v15.556c0 1.654-1.346 3-3 3h-1v-21c0-1.654 1.346-3 3-3h3c1.103 0 2 .897 2 2s-.897 2-2 2z"/><path d="m41.175 13.813c-.662-.118-1.342-.226-2.039-.321l-.271 1.982c.67.092 1.324.195 1.961.308z"/><path d="m53.426 21.423 1.812-.846c-.901-1.93-2.479-3.4-4.445-4.139-2.428-.914-4.979-1.662-7.582-2.226l-.423 1.955c2.508.542 4.964 1.263 7.301 2.143 1.453.546 2.669 1.68 3.337 3.113z"/><path d="m41 25h2v2h-2z"/><path d="m37 25h2v2h-2z"/><path d="m33 25h2v2h-2z"/><path d="m23 45h2v2h-2z"/><path d="m19 45h2v2h-2z"/><path d="m15 45h2v2h-2z"/></svg>