<?xml version="1.0" encoding="iso-8859-1"?>
<!-- Generator: Adobe Illustrator 19.0.0, SVG Export Plug-In . SVG Version: 6.00 Build 0)  -->
<svg version="1.1" id="Capa_1" xmlns="http://www.w3.org/2000/svg" xmlns:xlink="http://www.w3.org/1999/xlink" x="0px" y="0px"
	 viewBox="0 0 480.038 480.038" style="enable-background:new 0 0 480.038 480.038;" xml:space="preserve">
<path style="fill:#E97424;" d="M472.038,432.019c-13.255,0-24-10.745-24-24c0-4.418-3.582-8-8-8s-8,3.582-8,8
	c0,13.255-10.745,24-24,24c-4.418,0-8,3.582-8,8s3.582,8,8,8c13.255,0,24,10.745,24,24l0,0c0,4.418,3.582,8,8,8s8-3.582,8-8
	c0-13.255,10.745-24,24-24l0,0c4.418,0,8-3.582,8-8S476.456,432.019,472.038,432.019z M440.038,448.267
	c-2.33-3.138-5.109-5.918-8.248-8.248c3.138-2.33,5.918-5.109,8.248-8.248c2.33,3.138,5.109,5.918,8.248,8.248
	C445.147,442.349,442.368,445.128,440.038,448.267z"/>
<path style="fill:#7FCAC9;" d="M72.037,32.019c-13.255,0-24-10.745-24-24c0-4.418-3.582-8-8-8s-8,3.582-8,8
	c0,13.255-10.745,24-24,24c-4.418,0-8,3.582-8,8s3.582,8,8,8c13.255,0,24,10.745,24,24c0,4.418,3.582,8,8,8s8-3.582,8-8
	c0-13.255,10.745-24,24-24c4.418,0,8-3.582,8-8S76.456,32.019,72.037,32.019z M40.037,48.267c-2.33-3.138-5.11-5.918-8.248-8.248
	c3.138-2.33,5.918-5.11,8.248-8.248c2.33,3.138,5.11,5.918,8.248,8.248C45.147,42.349,42.368,45.128,40.037,48.267z"/>
<path style="fill:#FCF05A;" d="M69.641,265.362l142.88,17.931l-5.977,47.627l-142.88-17.931L69.641,265.362z"/>
<path style="fill:#FDBD40;" d="M193.79,136.435c-19.782,16.663-49.225,14.587-66.472-4.688c-11.256,10.914-28.838,11.853-41.192,2.2
	L69.637,265.355l142.88,17.936l16.32-129.784c-14.381,4.909-30.026-2.719-35.016-17.072H193.79z"/>
<path style="fill:#FCF05A;" d="M223.518,99.219c-4.23-0.509-8.521-0.032-12.536,1.392c0.542-26.504-20.504-48.43-47.008-48.972
	c-19.225-0.393-36.829,10.724-44.736,28.252c-3.089-1.547-6.41-2.576-9.832-3.048c-17.523-2.302-33.594,10.036-35.896,27.559
	s10.036,33.594,27.559,35.896c9.587,1.26,19.23-1.883,26.233-8.551c17.247,19.275,46.69,21.351,66.472,4.688
	c5.234,14.523,21.251,22.053,35.774,16.819c14.523-5.234,22.053-21.251,16.819-35.774
	C242.796,107.576,233.965,100.517,223.518,99.219z"/>
<path style="fill:#E97424;" d="M69.637,265.355l-47.624-5.976c-8.768-1.098-14.986-9.096-13.888-17.864l10.96-87.32
	c1.102-8.765,9.099-14.978,17.864-13.88l47.632,5.976l-4,31.752l-31.752-4l-6.96,55.576l31.752,4L69.637,265.355z"/>
<path style="fill:#E9686A;" d="M332.542,330.227l101.096-17.928l-50.248-35.08l-4.6-25.936l50.4-120.68
	c1.71-4.074-0.207-8.763-4.281-10.472c-1.427-0.599-2.996-0.771-4.519-0.496l-141.752,25.184c-4.35,0.772-7.251,4.925-6.479,9.275
	c0.268,1.51,0.965,2.911,2.007,4.037l88.864,96l4.6,25.888L332.542,330.227z"/>
<path style="fill:#238892;" d="M384.038,0.019v65.472c-2.562-0.948-5.268-1.445-8-1.472c-13.255,0-24,10.745-24,24s10.745,24,24,24
	s24-10.745,24-24v-40h64v17.472c-2.562-0.948-5.268-1.445-8-1.472c-13.255,0-24,10.745-24,24s10.745,24,24,24s24-10.745,24-24v-88
	H384.038z M400.038,16.019h64v16h-64V16.019z"/>
<path style="fill:#E9686A;" d="M56.037,352.019h-8v81.472c-2.562-0.948-5.268-1.445-8-1.472c-13.255,0-24,10.745-24,24
	s10.745,24,24,24s24-10.745,24-24v-87.432c18.61,1.445,36.26,8.838,50.344,21.088l11.312-11.312
	C99.653,352.323,57.805,352.019,56.037,352.019z"/>
<g>
	<circle style="fill:#FCF05A;" cx="280.038" cy="376.019" r="16"/>
	<circle style="fill:#FCF05A;" cx="256.038" cy="296.019" r="16"/>
	<circle style="fill:#FCF05A;" cx="240.038" cy="40.019" r="16"/>
</g>
<path style="fill:#E97424;" d="M288.198,72.019c-4.418,0.022-8.018-3.542-8.04-7.96c-0.022-4.418,3.542-8.018,7.96-8.04h0.08
	c4.418,0,8,3.582,8,8S292.616,72.019,288.198,72.019z"/>
<g>
	<path style="fill:#FCF05A;" d="M104.198,232.019c-4.418,0.022-8.018-3.542-8.04-7.96c-0.022-4.418,3.542-8.018,7.96-8.04h0.08
		c4.418,0,8,3.582,8,8S108.616,232.019,104.198,232.019z"/>
	<path style="fill:#FCF05A;" d="M128.198,208.019c-4.418,0.022-8.018-3.542-8.04-7.96c-0.022-4.418,3.542-8.018,7.96-8.04h0.08
		c4.418,0,8,3.582,8,8S132.616,208.019,128.198,208.019z"/>
	<path style="fill:#FCF05A;" d="M120.198,256.019c-4.418,0.022-8.018-3.542-8.04-7.96c-0.022-4.418,3.542-8.018,7.96-8.04h0.08
		c4.418,0,8,3.582,8,8S124.616,256.019,120.198,256.019z"/>
	<path style="fill:#FCF05A;" d="M184.198,256.019c-4.418,0.022-8.018-3.542-8.04-7.96c-0.022-4.418,3.542-8.018,7.96-8.04h0.08
		c4.418,0,8,3.582,8,8S188.616,256.019,184.198,256.019z"/>
</g>
<path style="fill:#E97424;" d="M312.198,248.019c-4.418,0.022-8.018-3.542-8.04-7.96c-0.022-4.418,3.542-8.018,7.96-8.04h0.08
	c4.418,0,8,3.582,8,8S316.616,248.019,312.198,248.019z"/>
<path style="fill:#FCF05A;" d="M152.198,240.019c-4.418,0.022-8.018-3.542-8.04-7.96c-0.022-4.418,3.542-8.018,7.96-8.04h0.08
	c4.418,0,8,3.582,8,8S156.616,240.019,152.198,240.019z"/>
<path d="M480.038,440.019c0-4.418-3.582-8-8-8c-13.255,0-24-10.745-24-24c0-4.418-3.582-8-8-8s-8,3.582-8,8
	c0,13.255-10.745,24-24,24c-4.418,0-8,3.582-8,8s3.582,8,8,8c13.255,0,24,10.745,24,24l0,0c0,4.418,3.582,8,8,8s8-3.582,8-8
	c0-13.255,10.745-24,24-24l0,0C476.456,448.019,480.038,444.437,480.038,440.019z M440.038,448.267
	c-2.33-3.138-5.109-5.918-8.248-8.248c3.138-2.33,5.918-5.109,8.248-8.248c2.33,3.138,5.109,5.918,8.248,8.248
	C445.147,442.349,442.368,445.128,440.038,448.267z"/>
<path d="M8.038,48.019c13.255,0,24,10.745,24,24c0,4.418,3.582,8,8,8s8-3.582,8-8c0-13.255,10.745-24,24-24c4.418,0,8-3.582,8-8
	s-3.582-8-8-8c-13.255,0-24-10.745-24-24c0-4.418-3.582-8-8-8s-8,3.582-8,8c0,13.255-10.745,24-24,24c-4.418,0-8,3.582-8,8
	S3.619,48.019,8.038,48.019z M40.037,31.771c2.33,3.138,5.11,5.918,8.248,8.248c-3.138,2.33-5.918,5.11-8.248,8.248
	c-2.33-3.138-5.11-5.918-8.248-8.248C34.928,37.688,37.707,34.909,40.037,31.771z"/>
<path d="M65.749,103.611c-1.532,12.429,2.872,24.854,11.888,33.544v0.2l-39.688-4.976c-13.143-1.65-25.137,7.659-26.8,20.8
	L0.19,240.523c-1.65,13.143,7.659,25.137,20.8,26.8l39.688,4.976l-5.976,47.624l158.76,19.928l22.672-180.728
	c17.756-8.896,24.939-30.502,16.043-48.258c-5.38-10.738-15.766-18.081-27.683-19.574c-2.047-0.264-4.115-0.336-6.176-0.216
	c-4.727-30.565-33.336-51.51-63.901-46.784c-16.081,2.487-30.285,11.845-38.915,25.64c-1.677-0.465-3.385-0.807-5.112-1.024
	c-21.916-2.748-41.911,12.789-44.664,34.704L65.749,103.611z M17.685,248.411c-1.299-1.673-1.875-3.796-1.6-5.896l10.936-87.296
	c0.499-3.997,3.892-6.999,7.92-7.008c0.34,0.002,0.679,0.023,1.016,0.064l39.688,4.984l-2.008,15.848l-31.752-4l-8.968,71.44
	l31.752,4l-1.992,15.88l-39.688-4.984C20.888,251.18,18.979,250.088,17.685,248.411z M71.661,184.987l-4.984,39.688l-15.872-1.992
	l4.976-39.688L71.661,184.987z M199.598,321.979l-127-15.936l4-31.752l127,15.936L199.598,321.979z M78.573,258.419l14.048-111.936
	c11.407,3.878,23.959,2.344,34.096-4.168c18.013,15.397,43.788,17.729,64.272,5.816c5.792,8.077,14.696,13.367,24.56,14.592
	c1.327,0.17,2.662,0.261,4,0.272l-13.976,111.36L78.573,258.419z M81.637,105.619c1.422-12.974,13.092-22.339,26.066-20.917
	c2.82,0.309,5.562,1.124,8.094,2.405l7.384,3.568l3.376-7.472c9.101-20.13,32.797-29.07,52.927-19.969
	c14.582,6.593,23.831,21.242,23.513,37.241l-0.24,11.464l10.848-3.736c2.859-1.031,5.918-1.381,8.936-1.024
	c10.92,1.224,18.78,11.069,17.556,21.989c-0.867,7.734-6.163,14.252-13.556,16.683l-0.232,0.08
	c-10.239,3.539-21.409-1.893-24.948-12.132c-0.007-0.02-0.014-0.04-0.02-0.06l-3.888-10.776l-8.8,7.36
	c-8.483,7.199-19.605,10.492-30.64,9.072c-9.54-1.21-18.324-5.817-24.744-12.976l-5.48-6.096l-5.968,5.6
	c-5.155,4.964-12.271,7.344-19.376,6.48c-1.966-0.26-3.889-0.776-5.72-1.536c-0.192-0.08-0.368-0.176-0.552-0.248
	c-1.845-0.804-3.588-1.825-5.192-3.04l-1.64-1.248C83.559,121.09,80.685,113.365,81.637,105.619L81.637,105.619z"/>
<path d="M363.03,254.083l4.6,25.936l-35.088,50.216l101.096-17.936l-50.248-35.08l-4.6-25.936l50.4-120.68
	c1.71-4.074-0.207-8.763-4.281-10.472c-1.427-0.599-2.996-0.771-4.519-0.496l-141.752,25.184c-4.35,0.772-7.251,4.925-6.479,9.275
	c0.268,1.51,0.965,2.911,2.007,4.037L363.03,254.083z M367.79,307.683l10.272-14.704l14.704,10.272L367.79,307.683z M408.79,137.915
	l-40.88,97.848l-72.048-77.816L408.79,137.915z"/>
<path d="M376.038,112.019c13.255,0,24-10.745,24-24v-40h64v17.472c-2.562-0.948-5.268-1.445-8-1.472c-13.255,0-24,10.745-24,24
	s10.745,24,24,24s24-10.745,24-24v-88h-96v65.472c-2.562-0.948-5.268-1.445-8-1.472c-13.255,0-24,10.745-24,24
	S362.783,112.019,376.038,112.019z M456.038,96.019c-4.418,0-8-3.582-8-8s3.582-8,8-8s8,3.582,8,8S460.456,96.019,456.038,96.019z
	 M400.038,16.019h64v16h-64V16.019z M376.038,80.019c4.418,0,8,3.582,8,8s-3.582,8-8,8s-8-3.582-8-8S371.619,80.019,376.038,80.019z
	"/>
<path d="M48.037,352.019v81.472c-2.562-0.948-5.268-1.445-8-1.472c-13.255,0-24,10.745-24,24s10.745,24,24,24s24-10.745,24-24
	v-87.432c18.61,1.445,36.26,8.838,50.344,21.088l11.312-11.312c-26.04-26.04-67.888-26.344-69.656-26.344H48.037z M40.037,464.019
	c-4.418,0-8-3.582-8-8s3.582-8,8-8s8,3.582,8,8S44.456,464.019,40.037,464.019z"/>
<path d="M256.038,376.019c0,13.255,10.745,24,24,24s24-10.745,24-24s-10.745-24-24-24S256.038,362.764,256.038,376.019z
	 M280.038,368.019c4.418,0,8,3.582,8,8s-3.582,8-8,8s-8-3.582-8-8S275.619,368.019,280.038,368.019z"/>
<path d="M256.038,272.019c-13.255,0-24,10.745-24,24s10.745,24,24,24s24-10.745,24-24S269.292,272.019,256.038,272.019z
	 M256.038,304.019c-4.418,0-8-3.582-8-8s3.582-8,8-8s8,3.582,8,8S260.456,304.019,256.038,304.019z"/>
<path d="M240.038,64.019c13.255,0,24-10.745,24-24s-10.745-24-24-24c-13.255,0-24,10.745-24,24S226.783,64.019,240.038,64.019z
	 M240.038,32.019c4.418,0,8,3.582,8,8s-3.582,8-8,8s-8-3.582-8-8S235.619,32.019,240.038,32.019z"/>
<path d="M288.198,72.019c4.418,0,8-3.582,8-8s-3.582-8-8-8h-0.08c-4.418,0.022-7.982,3.622-7.96,8.04
	C280.18,68.477,283.779,72.041,288.198,72.019z"/>
<path d="M104.198,216.019h-0.08c-4.44,0.022-8.022,3.64-8,8.08c0.022,4.44,3.64,8.022,8.08,8s8.022-3.64,8-8.08
	C112.175,219.61,108.607,216.041,104.198,216.019z"/>
<path d="M128.198,192.019h-0.08c-4.44,0.022-8.022,3.64-8,8.08c0.022,4.44,3.64,8.022,8.08,8c4.44-0.022,8.022-3.64,8-8.08
	C136.175,195.61,132.607,192.041,128.198,192.019z"/>
<path d="M120.198,240.019h-0.08c-4.44,0.022-8.022,3.64-8,8.08c0.022,4.44,3.64,8.022,8.08,8s8.022-3.64,8-8.08
	C128.175,243.61,124.607,240.041,120.198,240.019z"/>
<path d="M184.198,240.019h-0.08c-4.44,0.022-8.022,3.64-8,8.08c0.022,4.44,3.64,8.022,8.08,8s8.022-3.64,8-8.08
	C192.175,243.61,188.607,240.041,184.198,240.019z"/>
<path d="M312.198,248.019c4.418,0,8-3.582,8-8s-3.582-8-8-8h-0.08c-4.418,0.022-7.982,3.622-7.96,8.04
	C304.18,244.477,307.779,248.041,312.198,248.019z"/>
<path d="M152.198,224.019h-0.08c-4.44,0.022-8.022,3.64-8,8.08c0.022,4.44,3.64,8.022,8.08,8s8.022-3.64,8-8.08
	C160.175,227.61,156.607,224.041,152.198,224.019z"/>
<g>
</g>
<g>
</g>
<g>
</g>
<g>
</g>
<g>
</g>
<g>
</g>
<g>
</g>
<g>
</g>
<g>
</g>
<g>
</g>
<g>
</g>
<g>
</g>
<g>
</g>
<g>
</g>
<g>
</g>
</svg>
