<svg height="511pt" viewBox="-25 1 511 511.999" width="511pt" xmlns="http://www.w3.org/2000/svg"><g fill-rule="evenodd"><path d="m100.132812 340.75c-3.597656 5.582031-35.515624 55.632812-39.597656 43.984375-6.210937-17.628906-29.90625-22.304687-43.289062-14.425781-18.960938 11.136718-5.667969 49.933594 13.464844 49.933594h44.507812l71.179688-5.269532c52.074218-58.636718 54.453124-125.746094 9.808593-200.875-37.875.03125-52.644531 22.25-52.613281 77.597656v8.613282c0 18.476562 2.777344 30.890625-3.460938 40.441406zm0 0" fill="#ffdda6"/><path d="m386.78125 420.355469h44.503906c19.136719 0 32.429688-38.765625 13.464844-49.933594-13.378906-7.851563-37.078125-3.175781-43.285156 14.453125-4.109375 11.648438-36-38.429688-39.601563-43.984375-6.234375-9.578125-3.457031-21.960937-3.457031-40.441406v-8.613281c0-55.375-14.742188-77.566407-52.613281-77.59375.03125 0 .03125.027343.058593.027343-55.789062 78.953125-40.933593 205.746094 80.929688 206.085938zm0 0" fill="#ffdda6"/><path d="m141.097656 257.347656c-.113281 10.003906.792969 21.226563 5.300782 30.519532.933593 1.929687 2.011718 3.796874 3.285156 5.527343 1.871094 2.550781 4.027344 4.675781 6.523437 6.207031 15.25 12.496094 47.082031 17.199219 71.0625 10.539063 4.539063-1.273437 3.035157-1.21875 7.570313 0 24.378906 6.546875 56.582031.738281 70.953125-10.539063 4.394531-2.722656 7.539062-6.832031 9.808593-11.59375 4.449219-9.40625 5.414063-21.421874 5.300782-30.664062-.480469-14.679688-4.875-32.417969-15.109375-43.246094h-149.585938c-7.769531 8.191406-12.558593 20.972656-14.375 34.320313-.394531 2.976562-.652343 5.953125-.734375 8.929687zm0 0" fill="#64b0d9"/><path d="m146.398438 266.8125v110.242188l91.304687 35.507812 77.898437-35.507812v-110.128907c-2.269531 4.789063-5.414062 8.871094-9.808593 11.589844-14.371094 11.308594-46.574219 17.089844-70.953125 10.542969-4.535156-1.191406-3.03125-1.246094-7.570313 0-23.980469 6.660156-55.8125 1.953125-71.0625-10.542969-2.496093-1.53125-4.652343-3.65625-6.523437-6.207031-1.273438-1.726563-2.351563-3.570313-3.285156-5.496094zm0 0" fill="#64b0d9"/><path d="m105.519531 399.953125 136.917969 63.167969 114.039062-63.167969-40.875-22.898437h-169.203124zm0 0" fill="#0f941e"/><path d="m141.097656 257.347656c-.113281 10.003906.792969 21.226563 5.300782 30.519532 2.210937 4.59375 5.414062 9.011718 9.808593 11.734374 15.25 12.496094 47.082031 17.203126 71.0625 10.542969 4.539063-1.277343 3.035157-1.21875 7.570313 0 24.378906 6.546875 56.582031.734375 70.953125-10.542969 4.394531-2.722656 7.539062-6.832031 9.808593-11.589843 4.449219-9.410157 5.414063-21.425781 5.300782-30.664063-.085938-2.976562-.367188-6.121094-.792969-9.269531-.765625 5.667969-2.15625 11.421875-4.507813 16.4375-2.269531 4.761719-5.414062 8.871094-9.808593 11.589844-14.371094 11.28125-46.574219 17.0625-70.953125 10.542969-4.535156-1.21875-3.03125-1.273438-7.570313 0-23.980469 6.660156-55.8125 1.957031-71.0625-10.542969-2.496093-1.558594-4.652343-3.65625-6.523437-6.203125-1.273438-1.730469-2.351563-3.601563-3.285156-5.527344-2.410157-4.988281-3.800782-10.515625-4.535157-16.097656l-.03125.144531c-.394531 2.972656-.652343 5.949219-.734375 8.925781zm0 0" fill="#4a83c9"/><path d="m242.4375 434.667969c-86.148438 0-108.230469 69.773437-87.28125 69.773437h38.636719c7.144531-32.816406 23.472656-55.914062 48.644531-69.773437zm0 0" fill="#ffdda6"/><path d="m75.21875 420.242188c-21.375 29.816406-12.984375 84.199218 48.613281 84.199218h31.324219c-20.949219 0 1.132812-69.773437 87.28125-69.773437-41.273438-25.648438-102.25-42.171875-136.917969-34.714844-8.191406 2.917969-23.160156 10.484375-30.1875 20.121094-.03125.027343-.03125.054687-.058593.082031-.027344.03125-.027344.058594-.054688.085938zm0 0" fill="#50d960"/><path d="m242.4375 434.667969c-25.171875 13.859375-41.5 36.953125-48.644531 69.773437h150.128906c48.984375 0 59.640625-56.394531 43.226563-84.199218h-.367188c-6.972656-9.71875-22.082031-17.371094-30.304688-20.289063-45.042968-3.289063-88.15625 19.609375-114.039062 34.714844zm0 0" fill="#50d960"/><path d="m65.570312 443.101562c-5.359374 28.601563 10.40625 61.398438 58.238282 61.398438h31.332031c-7.65625 0-9.554687-9.300781-4.734375-21.089844h-26.597656c-36.207032 0-54.042969-18.765625-58.238282-40.308594zm0 0" fill="#0f941e"/><path d="m150.40625 483.410156c-4.820312 11.789063-2.921875 21.089844 4.734375 21.089844h38.644531c1.644532-7.539062 3.769532-14.570312 6.378906-21.089844zm0 0" fill="#fcc368"/><path d="m200.171875 483.355469c-2.609375 6.519531-4.734375 13.546875-6.378906 21.085937h150.128906c39.628906 0 54.199219-36.957031 49.578125-65.804687-3.601562 23.097656-19.246094 44.71875-49.578125 44.71875zm0 0" fill="#0f941e"/><path d="m9.480469 379.886719c-5.585938 15.644531 5.953125 40.355469 21.230469 40.355469h44.507812l.054688-.082032.058593-.085937c6.066407-8.332031 18.054688-15.105469 26.476563-18.675781l-26.109375 1.925781h-44.503907c-10.320312 0-18.9375-11.277344-21.714843-23.4375zm0 0" fill="#fcc368"/><path d="m358.605469 400.746094c8.503906 3.402344 21.769531 10.570312 28.175781 19.496094h.367188c.027343.03125.027343.085937.058593.113281h44.078125c14.714844 0 25.96875-22.898438 21.773438-38.570313-3.175782 11.449219-11.453125 21.679688-21.261719 21.679688h-44.53125c-10.292969-.027344-19.84375-.960938-28.660156-2.71875zm0 0" fill="#fcc368"/><path d="m378.84375 158.410156c-33.222656-19.523437-16.355469-77.082031-25.710938-100.886718-10.6875-27.265626-43.058593-16.210938-54.140624-16.210938l-15.707032 51.351562 18.796875 62.6875c19.644531 30.949219 54.339844 28.171876 75.882813 19.554688 10.660156-4.28125 12.359375-9.75.878906-16.496094zm0 0" fill="#b5722f"/><path d="m267.582031 214.097656v-39.84375l-36.484375-14.3125-36.679687 14.054688v40.101562c0 20.207032 16.382812 36.589844 36.566406 36.589844 20.214844 0 36.597656-16.382812 36.597656-36.589844zm0 0" fill="#fcc368"/><path d="m302.082031 155.351562c8.019531-11.308593 13.039063-24.457031 13.039063-38.769531l.113281-26.722656-81.472656-50.957031-85.464844 35.707031c-.710937 3.914063-1.078125 7.910156-1.105469 11.988281l-.113281 33.554688c0 27.574218 23.527344 51.410156 47.339844 64.730468 13.578125 7.621094 27.269531 11.789063 36.679687 11.277344 11.507813-.652344 24.378906-4.535156 36.484375-11.023437 13.292969-7.113281 25.710938-17.316407 34.5-29.785157zm0 0" fill="#ffdda6"/><path d="m208.648438 63.472656c27.863281 27.121094 52.726562 33.839844 106.585937 26.382813v-3.285157c.054687-16.917968-6.210937-32.507812-16.242187-45.257812-16.246094-20.632812-42.351563-33.925781-67.636719-33.753906-38.269531.253906-76.171875 29.445312-83.058594 67.050781 37.589844 17.203125 39.941406-31.003906 60.351563-11.136719zm0 0" fill="#b5722f"/><path d="m315.234375 86.570312c.054687-16.917968-6.210937-32.507812-16.242187-45.257812-16.246094-20.632812-42.351563-33.925781-67.636719-33.753906-6.890625.027344-13.777344 1.019531-20.4375 2.804687 23.300781 1.816407 46.574219 14.570313 61.511719 33.554688 6.519531 8.277343 11.453124 17.742187 14.089843 27.972656.507813 1.984375.933594 3.996094 1.273438 6.035156.597656 3.683594.910156 7.425781.910156 11.25l-.03125 3.289063c8.050781-.367188 16.839844-1.246094 26.5625-2.609375zm0 0" fill="#8a541e"/><path d="m315.121094 116.582031.113281-26.722656c-9.722656 1.359375-18.511719 2.238281-26.5625 2.605469l-.054687 17.9375-.058594 8.785156c0 14.3125-5.015625 27.460938-13.011719 38.769531-3.683594 5.214844-7.992187 10.03125-12.753906 14.425781-6.605469 6.035157-14.035157 11.222657-21.773438 15.359376-6.121093 3.289062-12.441406 5.921874-18.679687 7.765624 3.175781.566407 6.121094.792969 8.757812.652344 11.507813-.652344 24.378906-4.535156 36.484375-11.023437 13.292969-7.113281 25.710938-17.316407 34.5-29.785157 8.019531-11.308593 13.039063-24.457031 13.039063-38.769531zm0 0" fill="#fcc368"/><path d="m378.84375 158.410156c-33.222656-19.523437-16.355469-77.082031-25.710938-100.886718-5.667968-14.453126-17.460937-18.136719-28.914062-18.421876 4.109375 3.203126 7.625 7.707032 10.121094 14.027344 10.660156 27.148438-8.589844 92.785156 29.28125 115.03125 5.359375 3.144532 8.191406 6.035156 8.875 8.699219 1.898437-.59375 3.710937-1.273437 5.46875-1.953125 10.660156-4.28125 12.359375-9.75.878906-16.496094zm0 0" fill="#8a541e"/><path d="m267.582031 201.800781v-16.664062c-12.105469 6.488281-24.976562 10.371093-36.484375 11.023437-9.410156.511719-23.101562-3.65625-36.679687-11.277344v16.238282l.367187.226562c13.578125 7.59375 27.269532 11.789063 36.683594 11.25 5.726562-.3125 11.789062-1.445312 17.914062-3.285156 4.335938-1.304688 3.003907 3.539062 2.976563 4.789062v2.917969c0 15.105469-9.15625 28.085938-22.226563 33.636719.285157.03125.570313.03125.851563.03125 20.210937 0 36.597656-16.382812 36.597656-36.589844zm0 0" fill="#eda93b"/></g><path d="m448.574219 363.902344c-9.230469-5.414063-21.90625-6.238282-33.085938-2.144532-7.976562 2.917969-14.28125 7.972657-18.277343 14.535157-4.28125-4.304688-12.910157-14.574219-28.507813-38.742188l-.503906-.78125c-3.335938-5.121093-3.023438-12.636719-2.585938-23.042969.164063-3.945312.347657-8.421874.347657-13.277343v-8.613281c0-29.972657-4.253907-50.238282-13.394532-63.78125-9.453125-14.007813-24.253906-20.984376-45.171875-21.335938-.519531-.117188-1.058593-.179688-1.601562-.179688h-30.65625v-16.976562c5.699219-3.347656 11.175781-7.203125 16.246093-11.519531 3.847657-3.277344 7.367188-6.726563 10.542969-10.316407 13.066407 14.886719 30.328125 20.429688 47.164063 20.429688 11.210937 0 22.234375-2.457031 31.691406-6.238281 3.171875-1.273438 12.820312-5.148438 13.476562-13.945313.667969-8.878906-8.554687-14.296875-11.585937-16.078125-18.082031-10.625-18.320313-37.25-18.53125-60.738281-.121094-13.828125-.238281-26.894531-3.972656-36.394531-10.859375-27.699219-40.019531-23.699219-54.03125-21.777344-1.347657.1875-2.652344.363281-3.828125.503906-1.558594-1.8125-3.1875-3.59375-4.914063-5.3125-17.734375-17.667969-42.199219-28.175781-65.554687-28.175781-.175782 0-.359375 0-.535156 0-22.40625.152344-45.335938 9.402344-62.902344 25.386719-18.476563 16.808593-28.695313 38.539062-28.769532 61.183593l-.113281 33.582032c0 23.339844 14.234375 41.710937 26.175781 53.019531 6.414063 6.070313 13.667969 11.523437 21.164063 16.089844v17.277343h-30.652344c-.003906 0-.003906 0-.007812 0-53.054688.042969-60.183594 43.070313-60.164063 85.152344v8.617188c0 4.851562.1875 9.328125.351563 13.28125.433593 10.410156.746093 17.933594-2.582031 23.027344-.007813.011718-.015626.023437-.023438.035156l-.3125.492187c-14.539062 22.589844-23.746094 34.089844-28.660156 39.042969-3.996094-6.585938-10.316406-11.65625-18.316406-14.578125-11.179688-4.082031-23.859376-3.242187-33.070313 2.183594-11.144531 6.542969-15.589844 20.902343-11.328125 36.578125 3.59375 13.210937 14.082031 27.429687 28.617188 27.429687h31.617187c-7.144531 16.613281-7.214844 35.945313.527344 51.796875 5.910156 12.101563 21.691406 32.398438 60.976562 32.398438h69.941407c.011718 0 .019531.003906.027343.003906.007813 0 .011719-.003906.019531-.003906h72.320313c7.582031-6.664063 2.960937-15.113282-3.632813-15.113282h-58.984374c7.46875-25.699218 21.429687-43.949218 42.53125-55.578124 0 0 .003906 0 .007812-.003907.007812-.003906.011719-.007812.019531-.011719.035157-.019531.0625-.042968.097657-.058593.023437-.015625.046874-.023438.070312-.035157 29.242188-17.066406 67.882812-36.242187 108.296875-33.785156 7.714844 2.875 20.570313 9.648438 26.09375 17.351563.273437.378906.585937.71875.917969 1.039062 7.507812 14.414063 6.867187 35.941407-1.75 51.035157-5.21875 9.144531-15.683594 20.046874-35.886719 20.046874h-51.652344c-7.585937 6.667969-2.964843 15.117188 3.632813 15.117188h48.019531c21.421875 0 38.828125-9.828125 49.015625-27.671875 9.457031-16.570313 11.425781-38.5625 5.792969-56.414063h32.558593c14.527344 0 25.015626-14.199218 28.609376-27.394531 4.269531-15.679687-.167969-30.046875-11.324219-36.617187zm-206.046875 61.988281c-32.226563-19.085937-72.886719-31.996094-105.894532-34.707031l11.734376-6.574219 66.9375.03125h3.636718c7.585938-6.660156 2.96875-15.113281-3.628906-15.117187l-61.359375-.023438v-62.132812c12.121094 8.570312 30.878906 13.375 49.589844 13.375 8.839843 0 17.667969-1.074219 25.773437-3.324219.628906-.175781 1.148438-.328125 1.585938-.457031.042968-.015626.085937-.027344.128906-.039063.492188.144531 1.09375.316406 1.851562.519531 24.496094 6.578125 57.335938 1.996094 75.164063-10.144531v62.199219h-61.730469c-7.582031 6.664062-2.960937 15.113281 3.632813 15.113281h63.476562l15.621094 8.753906c-33.171875 4.417969-63.839844 19.546875-86.519531 32.527344zm69.675781-378.445313c15.425781-1.847656 28.34375-1.328124 33.898437 12.839844 2.710938 6.90625 2.816407 18.613282 2.929688 31.007813.230469 26.140625.523438 58.667969 25.984375 73.636719 1.183594.691406 2.0625 1.292968 2.707031 1.785156-.640625.34375-1.480468.738281-2.5625 1.175781-7.160156 2.863281-42.625 15.128906-63.929687-12.628906 7.484375-12.097657 11.445312-25.269531 11.445312-38.648438l.101563-26.292969c.015625-.265624.015625-.535156.003906-.804687l.007812-2.917969c.046876-13.609375-3.640624-26.988281-10.585937-39.152344zm-80.796875-32.328124c.148438-.003907.292969-.003907.441406-.003907 19.433594 0 39.921875 8.867188 54.878906 23.769531 12.695313 12.644532 20.019532 28.28125 20.867188 44.34375-46.515625 5.691407-68.207031-.378906-93.675781-25.167968-14.679688-14.292969-25.84375-3.539063-32.511719 2.882812-6.703125 6.457032-12.621094 12.144532-24.152344 8.953125 8.886719-30.0625 40.273438-54.550781 74.152344-54.777343zm-55.320312 147.078124c-9.785157-9.265624-21.453126-24.078124-21.453126-42.015624l.113282-33.554688c.003906-.59375.039062-1.179688.0625-1.769531 18.886718 4.472656 30.03125-6.242188 37.078125-13.027344 2.617187-2.515625 5.316406-5.117187 7.011719-5.628906 1.222656-.359375 3.734374 1.964843 4.476562 2.691406 22.605469 22 43.746094 31.351563 76.488281 31.351563 8.414063 0 17.605469-.625 27.769531-1.804688l-.070312 18.144531c0 40.730469-46.273438 70.328125-76.878906 72.03125-.382813.023438-.777344.035157-1.183594.035157-12.480469-.003907-35.851562-9.824219-53.414062-26.453126zm83.9375 34.8125v21.535157c0 7.054687-3.410157 13.675781-9.15625 17.769531-23.460938 16.707031-48.894532.164062-48.894532-22.210938v-16.996093c9.839844 4.238281 19.433594 6.65625 27.480469 6.65625.699219 0 1.390625-.019531 2.066406-.054688 9.214844-.515625 18.957031-2.863281 28.503907-6.699219zm-111.371094 60.488282c.078125-2.59375.304687-5.308594.667968-8.058594 1.53125-11.253906 5.253907-21.167969 10.355469-27.78125h27.832031c3.59375 20.753906 21.722657 36.585938 43.476563 36.585938 21.769531 0 39.910156-15.832032 43.507813-36.585938h27.832031c7.515625 9.699219 10.636719 24.554688 11.023437 35.851562.070313 7.34375-.570312 18.523438-4.351562 26.835938-.152344.269531-.285156.550781-.402344.839844-1.652344 3.351562-3.855469 6.175781-6.785156 7.996094-.234375.144531-.464844.304687-.683594.476562-11.878906 9.324219-41.222656 15.390625-64.324219 9.1875-.667969-.179688-1.191406-.332031-1.621093-.453125-3.480469-1.007813-4.917969-.996094-8.539063.070313-.390625.113281-.855469.25-1.390625.398437-21.746094 6.039063-51.570312 1.714844-64.675781-9.457031-.003907 0-.003907-.003906-.007813-.003906-1.683594-.929688-3.296875-2.441407-4.769531-4.449219-4.96875-6.839844-7.304687-17.128907-7.144531-31.453125zm-131.972656 138.910156c-1.839844-6.761719-1.789063-15.945312 4.402343-19.585938 2.964844-1.746093 6.839844-2.636718 10.878907-2.636718 3.132812 0 6.367187.535156 9.347656 1.625 3.457031 1.261718 9.628906 4.425781 12.09375 11.425781 1.324218 3.78125 4.34375 6.300781 8.074218 6.742187 5.878907.699219 12.167969-2.808593 26.960938-22.734374 4.773438-6.433594 10.085938-14.144532 15.808594-22.933594h16.558594c7.585937-6.664063 2.960937-15.117188-3.632813-15.117188h-6.21875c1.109375-6.183594.839844-12.90625.535156-20.230468-.164062-3.988282-.339843-8.113282-.339843-12.652344v-8.617188c-.011719-26.433594 3.519531-44.527344 10.800781-55.308594 4.546875-6.734374 10.714843-11 19.246093-13.117187-3.292968 7.039063-5.640624 15.234375-6.851562 24.15625-.441406 3.308594-.710938 6.574219-.800781 9.710937 0 .039063-.003907.082032-.003907.125-.101562 8.6875.421876 20.445313 4.875 31.226563.128907.339844.269532.683594.425782 1.042969v83.097656l-36.46875 20.429688c-7.996094 2.929687-22.105469 9.90625-30.761719 19.632812h-40.898437c-5.382813 0-11.546876-7.152344-14.03125-16.28125zm59.757812 76.558594c-7.1875-14.714844-5.128906-34.3125 4.910156-48.304688.003906-.003906.007813-.007812.011719-.011718 5.617187-7.832032 18.542969-14.597657 26.199219-17.390626 26.34375-5.453124 71.292968 4.09375 109.085937 22.015626-24.304687 4.253906-40.855469 14.050781-51.207031 22.613281-15.3125 12.65625-25.207031 29.59375-25.207031 43.148437 0 .636719.03125 1.25.074219 1.847656h-16.472657c-29.519531 0-42.066406-13.003906-47.394531-23.917968zm111.394531 23.917968h-32.308593c-.503907-1.800781-.3125-7.289062 4.175781-15.355468 8.34375-15 27.117187-30.800782 56.734375-36.792969-13.5 13.429687-23.074219 30.875-28.601563 52.148437zm257.480469-100.339843c-2.480469 9.117187-8.644531 16.257812-14.027344 16.257812h-40.898437c-8.40625-9.417969-22.054688-16.316406-30.152344-19.398437-.363281-.210938-.746094-.390625-1.148437-.539063l-35.925782-20.125v-83.152343c4.3125-10.121094 5.402344-22.175782 5.300782-32.316407-.003907-.058593-.003907-.113281-.003907-.171875-.40625-12.296875-3.117187-24.003906-7.605469-33.660156 8.496094 2.121094 14.65625 6.363281 19.1875 13.074219 7.273438 10.777343 10.808594 28.875 10.808594 55.324219v8.617187c0 4.539063-.171875 8.660156-.339844 12.644531-.304687 7.328125-.574218 14.050782.539063 20.238282h-9.851563c-7.582031 6.664062-2.964843 15.113281 3.632813 15.113281h12.925781c3.367188 5.179687 9.589844 14.585937 16.105469 23.335937 14.578125 19.582032 20.8125 23.011719 26.652344 22.332032 3.726562-.4375 6.746093-2.953126 8.082031-6.730469 2.464844-7.003907 8.628906-10.167969 12.085938-11.433594 6.835937-2.503906 14.976562-2.105469 20.238281.980469 6.195312 3.648437 6.242187 12.84375 4.394531 19.609375zm0 0"/><path d="m207.613281 116.652344c-2.480469 2.234375-13.613281 2.242187-16.113281.015625-4.453125-4.527344-13.21875-2.261719-13.351562 6.941406 4.316406 8.976563 16.800781 9.839844 21.332031 9.847656h.050781c4.597656 0 17.074219-.863281 21.425781-9.847656-.128906-9.1875-8.882812-11.492187-13.34375-6.957031zm0 0"/><path d="m261.183594 133.457031h.101562c4.640625 0 17.054688-.871093 21.445313-9.828125-.117188-9.191406-8.863281-11.507812-13.335938-6.988281-2.476562 2.246094-13.621093 2.265625-16.125.027344-4.449219-4.527344-13.226562-2.265625-13.351562 6.941406 4.304687 8.957031 16.75 9.835937 21.265625 9.847656zm0 0"/></svg>