<svg height="511pt" viewBox="0 -58 511.99913 511" width="511pt" xmlns="http://www.w3.org/2000/svg"><path d="m100.257812 160.683594 59.933594-59.933594-137.824218-91.121094c-8.679688-5.738281-18.976563 4.558594-13.238282 13.238282zm0 0" fill="#ff5d9c"/><path d="m58.589844 97.667969s-25.53125-8.761719-21.476563-40.382813c4.054688-31.617187.941407-37.285156.941407-37.285156s22 3.3125 25.722656 17.007812c0 0 33.257812 15.621094-5.1875 60.660157zm0 0" fill="#ff83b4"/><path d="m88.597656 143.054688s-39.753906-18.304688-27.761718-62.039063c9.957031-36.3125 2.941406-44.007813 2.941406-44.007813s36.722656 5.144532 41.273437 27.285157c0 0 27.582031 30.578125-16.453125 78.761719zm0 0" fill="#ffabcd"/><path d="m100.257812 160.683594s-26.015624-21.289063-8.160156-59.246094c16.289063-34.632812 12.953125-37.144531 12.953125-37.144531s28.113281 1.53125 55.140625 36.457031zm0 0" fill="#ffd2e3"/><path d="m73.875 335.347656c-29.34375-8.394531-46.289062-39.003906-37.84375-68.335937 20.511719-71.242188 74.398438-187.460938 207.652344-187.460938 192.152344 0 194.511718 307.660157 194.511718 307.660157h-191.363281c-22.5625 0-41.09375-17.90625-41.746093-40.457032-.367188-12.777344-2.175782-27.851562-6.816407-44.136718-4.9375-17.3125-26.15625-23.617188-39.941406-12.03125-8.230469 6.914062-17.527344 15.816406-26.789063 26.910156-14.039062 16.8125-36.601562 23.875-57.664062 17.851562zm0 0" fill="#fcf5af"/><path d="m354.335938 250.15625s-20.179688 97.183594 49.027343 127.457031c40.597657 17.757813 73.632813 7.554688 94.011719-3.917969 9.484375-5.339843 9.527344-19.035156-.050781-24.203124-10.160157-5.484376-20.777344-14.875-24.757813-30.808594-8.496094-34.019532-46.863281-82.863282-118.230468-68.527344zm0 0" fill="#5ad6ff"/><path d="m475.46875 326.996094c-1.171875-2.550782-2.15625-5.316406-2.90625-8.3125-8.496094-34.019532-46.867188-82.867188-118.234375-68.527344 0 0-5.507813 26.566406-.882813 56.246094 21.230469 16.226562 69.996094 45.371094 122.023438 20.59375zm0 0" fill="#00c5fd"/><path d="m318.710938 190.359375s-1.859376 96.332031 72.730468 109.039063c39.699219 6.765624 71.660156-4.175782 92.878906-15.894532 10.710938-5.914062 9.320313-21.5625-2.21875-25.632812-20.457031-7.214844-46.496093-25.164063-63.648437-69.046875-1.769531 1.222656-99.742187 1.535156-99.742187 1.535156zm0 0" fill="#76e7e7"/><path d="m446.316406 234.359375c-10.230468-10.6875-19.980468-25.367187-27.863281-45.535156-1.769531 1.222656-99.738281 1.535156-99.738281 1.535156s-.320313 16.472656 4.582031 36.695313c22.1875 12.269531 67.28125 29.988281 123.019531 7.304687zm0 0" fill="#2eddda"/><path d="m263.28125 113.785156s15.839844 119.1875 162.410156 96.726563c11.871094-1.820313 16.695313-16.398438 8.238282-24.925781-7.160157-7.214844-14-17.109376-17.875-30.488282-10.566407-36.507812-56.6875-75.898437-85.511719-71.097656-28.828125 4.804688-67.261719 29.785156-67.261719 29.785156zm0 0" fill="#ffabcd"/><path d="m330.539062 84c-28.824218 4.804688-67.257812 29.785156-67.257812 29.785156s2.621094 19.722656 15.597656 41.609375c25.042969 4 75.332032 4.996094 113.871094-39.238281-18.710938-20.484375-43.9375-35.199219-62.210938-32.15625zm0 0" fill="#ff83b4"/><path d="m177.269531 99.625c-.480469-7.042969 26.21875-62.320312 100.285157-50.75 28.667968 4.476562 51.25 5.253906 68.15625 4.519531 15.226562-.664062 24.050781 17.058594 14.34375 28.800781-22.808594 27.589844-58.753907 61.007813-97.269532 57.949219-64.773437-5.140625-85.515625-40.519531-85.515625-40.519531zm0 0" fill="#a4e7ff"/><path d="m204.652344 102.8125c-6.546875-10.691406-18.757813-25.207031-39.355469-32.355469-6.890625-2.394531-14.324219 1.742188-15.953125 8.847657-2.792969 12.203124-3.9375 30.988281 11.273438 43.15625 13.503906 10.800781 27.925781 7.179687 37.863281 2.042968 7.949219-4.113281 10.84375-14.058594 6.171875-21.691406zm0 0" fill="#f2ad9a"/><path d="m42.972656 245.191406c-2.652344 7.597656-4.953125 14.921875-6.941406 21.820313-8.445312 29.332031 8.5 59.941406 37.84375 68.335937 21.058594 6.027344 43.625-1.039062 57.664062-17.851562 9.261719-11.089844 18.558594-19.992188 26.785157-26.90625-39.464844-43.757813-97.96875-45.824219-115.351563-45.398438zm0 0" fill="#f2ad9a"/><path d="m81.101562 286.152344c4.847657-8.8125 3.460938-18.886719-3.101562-22.496094s-15.816406.605469-20.664062 9.417969c-4.847657 8.8125-3.460938 18.882812 3.101562 22.496093 6.5625 3.609376 15.8125-.605468 20.664062-9.417968zm0 0" fill="#dd6642"/><path d="m117.578125 170.140625c-4.144531 0-7.5 3.359375-7.5 7.5v12.449219c0 4.144531 3.359375 7.5 7.5 7.5 4.144531 0 7.5-3.355469 7.5-7.5v-12.449219c0-4.140625-3.355469-7.5-7.5-7.5zm0 0"/><path d="m500.886719 342.890625c-11.152344-6.015625-18.230469-14.769531-21.042969-26.023437-1.597656-6.402344-4.097656-12.980469-7.316406-19.378907 5.707031-2.371093 10.875-4.90625 15.417968-7.414062 7.550782-4.171875 11.800782-12.078125 11.089844-20.632813-.714844-8.609375-6.246094-15.753906-14.441406-18.640625-18.390625-6.484375-33.839844-19.453125-46.023438-38.546875 2.695313-2.507812 4.78125-5.691406 5.988282-9.347656 2.636718-7.988281.601562-16.648438-5.304688-22.601562-5.632812-5.675782-10.082031-12.246094-13.214844-19.523438-1.640624-3.804688-6.050781-5.558594-9.855468-3.921875-3.804688 1.640625-5.5625 6.050781-3.921875 9.855469 3.878906 9.011718 9.378906 17.136718 16.339843 24.15625 1.941407 1.957031 2.582032 4.699218 1.710938 7.335937-.871094 2.644531-3.023438 4.472657-5.757812 4.890625-42.753907 6.550782-77.972657 1.300782-104.683594-15.605468-18.667969-11.8125-30.328125-27.660157-37.449219-41.140626 28.773437-5.769531 54.792969-27.414062 74.457031-49.039062 16.460938 8.53125 33.589844 24.769531 43.921875 41.972656 1.40625 2.34375 5.683594 4.957032 10.289063 2.570313 3.675781-1.910157 4.703125-6.742188 2.570312-10.292969-11.191406-18.636719-28.851562-35.78125-46.808594-45.90625 5.5-7.582031 6.335938-17.339844 2.101563-25.847656-4.484375-9.015625-13.515625-14.34375-23.5625-13.90625-19.878906.863281-42.3125-.628906-66.675781-4.4375-51.175782-7.992188-80.25 13.910156-94.242188 30.023437-4.917968-3.144531-10.453125-5.941406-16.714844-8.117187-5.289062-1.835938-11.132812-1.332032-16.03125 1.378906-3.59375 1.992188-6.4375 5.046875-8.203124 8.6875-13.804688-10.496094-26.019532-14.386719-32.707032-15.816406-7.421875-18.191406-31.613281-25.113282-41.636718-27.242188-6.441407-12.222656-22.640626-16.386718-28.28125-17.492187l-14.394532-9.515625c-6.839844-4.523438-15.667968-3.632813-21.464844 2.167968-5.796874 5.796876-6.691406 14.621094-2.167968 21.460938l26.410156 39.9375c1.152344 19.265625 12.796875 30.660156 22.085938 35.6875 1.339843 13.503906 7.273437 23.683594 13.113281 30.632812 6.675781 7.945313 19.542969 18.070313 19.542969 18.070313-6.078126 7.832031-11.847657 16.214844-17.289063 25.152344-15.660156 25.71875-28.414063 55.480469-37.90625 88.457031-4.644531 16.121094-2.722656 33.074219 5.402344 47.742188 8.121093 14.660156 21.46875 25.269531 37.585937 29.878906 23.816406 6.8125 49.519532-1.140625 65.480469-20.257813 7.890625-9.445312 16.589844-18.183593 25.859375-25.976562 4.570312-3.839844 10.703125-5.089844 16.40625-3.347657 5.683594 1.742188 9.871094 6.003907 11.496094 11.699219 3.917968 13.753907 6.117187 27.984375 6.53125 42.292969.371094 12.867188 5.675781 24.890625 14.933594 33.859375 9.25 8.953125 21.433593 13.882813 34.308593 13.882813 0 0 197.40625.035156 200.332031.035156 22.101563 0 40.46875-6.960938 53.890626-14.515625 6.820312-3.839844 11.015624-11.078125 10.945312-18.890625-.070312-7.835938-4.226562-14.730469-11.113281-18.449219zm-76.273438-124.648437c17.652344 28.671874 39.449219 41.222656 54.992188 46.703124 3.828125 1.351563 4.398437 4.730469 4.480469 5.734376.105468 1.261718-.015626 4.398437-3.394532 6.261718-18.972656 10.480469-49.644531 21.601563-87.992187 15.066406-25.105469-4.277343-43.59375-19.503906-54.953125-45.261718-5.972656-13.542969-8.855469-27.515625-10.246094-38.144532 16.828125 7.476563 55.011719 16.261719 97.113281 9.640626zm-148.214843-161.957032c25.34375 3.960938 48.773437 5.503906 69.640624 4.601563 4.09375-.179688 7.644532 1.914062 9.480469 5.601562 1.832031 3.683594 1.367188 7.769531-1.246093 10.929688-40.054688 48.445312-71.535157 56.789062-90.894532 55.25-19.328125-1.535157-36.34375-5.988281-50.703125-13.25.339844-.824219 4.910157-9.589844-1.628906-20.523438-3.371094-5.632812-8.246094-12.066406-14.726563-18.167969 11.972657-13.472656 36.558594-31.242187 80.078126-24.441406zm-113.5625 21.253906c18.417968 6.394532 29.425781 19.402344 35.417968 29.1875 1.132813 1.855469 1.4375 4.03125.847656 6.132813-.601562 2.167969-2.046874 3.9375-4.066406 4.980469-11.359375 5.875-21.363281 5.457031-29.734375-1.238282-9.421875-7.539062-11.890625-19.429687-8.648437-35.621093.957031-4.777344 5.628906-3.632813 6.183594-3.441407zm-147.191407-61.394531c1.1875-1.1875 2.238281-.488281 2.585938-.261719l13.1875 8.71875c.289062 2.46875.558593 7.777344-.273438 17.964844l-15.761719-23.835937c-.226562-.347657-.921874-1.398438.261719-2.585938zm28.90625 42.097657c1.453125-11.316407 2.164063-20.75 2.132813-27.925782 4.425781 1.894532 10.222656 5.597656 10.992187 11.050782 3.042969 19.628906-5.050781 41.566406-5.40625 43.449218-4.804687-4.765625-9.457031-13-7.71875-26.574218zm23.519531 24.757812c4.578126-16.707031 5.839844-28.152344 5.574219-35.960938 12.191407 3.503907 22.382813 10.617188 24.058594 18.765626l.019531-.003907c.023438.117188.03125.238281.0625.355469-.203125 1.492188-1.265625 6.617188-6.863281 19.660156-1.632813 3.808594.019531 8.496094 3.933594 9.851563 5.789062 2 8.632812-1.09375 9.851562-3.933594 3.320313-7.742187 5.589844-13.742187 6.867188-18.4375 6.574219 1.996094 17.144531 6.5625 28.675781 16.875-.167969 3.363281-.066406 6.601563.308594 9.710937-16.542969 10.097657-31.785156 22.9375-45.625 38.378907-1.570313-5.335938-2.25-11.914063-.746094-19.660157.792969-4.066406-1.859375-8.003906-5.925781-8.796874-4.066407-.789063-8.003907 1.863281-8.796875 5.929687-.722656 3.722656-1.054688 7.238281-1.109375 10.574219-8.160157-8.429688-15.988281-22.5-10.285157-43.308594zm57.710938 229.6875c-12.164062 14.566406-31.726562 20.632812-49.84375 15.449219-12.257812-3.503907-22.410156-11.578125-28.585938-22.726563-6.183593-11.15625-7.640624-24.058594-4.109374-36.320312 1.628906-5.65625 3.328124-11.125 5.085937-16.425782 6.136719.078126 14.777344.5625 24.792969 2.175782-8.417969-.15625-17.207032 5.246094-22.367188 14.621094-3.117187 5.664062-8.613281 26.042968 6.054688 32.679687 14.148437 6.402344 25.769531-3.132813 30.851562-12.371094 6.953125-12.628906 6.242188-28.511719-8.792968-33.902343 21.277343 4.183593 47.316406 13.582031 68.601562 34.257812-7.695312 6.964844-14.96875 14.519531-21.6875 22.5625zm-51.261719-30.148438c-2.910156 5.285157-8.011719 7.789063-10.476562 6.460938-3.769531-2.03125-1.699219-9.492188-.148438-12.308594 2.390625-4.339844 6.269531-7.929687 10.476563-6.460937 2.648437.921875 3.058594 7.023437.148437 12.308593zm138.066407 64c-.453126-15.554687-2.839844-31.023437-7.101563-45.976562-3-10.519531-11.050781-18.71875-21.53125-21.925781-8.269531-2.535157-17.023437-1.65625-24.503906 2.246093-35-35.140624-81.753907-42.035156-105.851563-43.070312 25.667969-67.949219 61.855469-103.988281 91.355469-122.996094 2.613281 5.199219 6.28125 9.742188 10.980469 13.5 7.179687 5.742188 15.359375 8.632813 24.039062 8.632813 14.648438 0 22.238282-5.941407 22.382813-6.019531 16.863281 9.257812 41.847656 15.78125 64.035156 16.882812 7.90625 16.824219 21.675781 37.277344 45.179687 52.253906.824219 11.664063 3.550782 32.546875 12.453126 52.730469 5.257812 11.925781 12.007812 22.042969 20.089843 30.246094.15625 19.976562 3.425781 37.863281 9.75 53.191406 7.90625 19.171875 20.382813 33.742187 37.128907 43.480469h-144.160157c-18.667969 0-33.710937-14.574219-34.246093-33.175782zm281.109374 20.621094c-19.050781 10.726563-49.671874 20.054688-87.328124 3.582032-19.757813-8.640626-42.886719-28.71875-46.71875-75.277344 9.101562 5.609375 28.921874 13.5 55.914062 13.5 15.941406 0 30.273438-2.597656 42.726562-6.375 3.132813 5.925781 5.53125 12.027344 7.003907 17.914062 3.816406 15.292969 13.664062 27.601563 28.46875 35.589844 2.890625 1.558594 3.226562 4.285156 3.234375 5.382812.023437 2.382813-1.210938 4.507813-3.300782 5.683594zm0 0"/></svg>